<svg xmlns="http://www.w3.org/2000/svg" xmlns:xlink="http://www.w3.org/1999/xlink" width="280" viewBox="0 0 210 71.249999" height="95" preserveAspectRatio="xMidYMid meet"><defs><clipPath id="ad9e705805"><path d="M 1.09375 1 L 62 1 L 62 70 L 1.09375 70 Z M 1.09375 1 " clip-rule="nonzero"></path></clipPath><clipPath id="b7f03835c3"><path d="M 85 56 L 95 56 L 95 70.507812 L 85 70.507812 Z M 85 56 " clip-rule="nonzero"></path></clipPath><clipPath id="2db174f65b"><path d="M 97 56 L 107 56 L 107 70.507812 L 97 70.507812 Z M 97 56 " clip-rule="nonzero"></path></clipPath><clipPath id="0404259c49"><path d="M 108 56 L 125 56 L 125 70.507812 L 108 70.507812 Z M 108 56 " clip-rule="nonzero"></path></clipPath><clipPath id="f44e50ade2"><path d="M 126 56 L 139 56 L 139 70.507812 L 126 70.507812 Z M 126 56 " clip-rule="nonzero"></path></clipPath><clipPath id="5bebb9c5cf"><path d="M 177 56 L 193 56 L 193 70.507812 L 177 70.507812 Z M 177 56 " clip-rule="nonzero"></path></clipPath><clipPath id="e0b1bb3322"><path d="M 195 55 L 208.90625 55 L 208.90625 70.507812 L 195 70.507812 Z M 195 55 " clip-rule="nonzero"></path></clipPath></defs><path fill="#ffffff" d="M 10.578125 11.679688 L 52.210938 11.679688 L 52.210938 59.9375 L 10.578125 59.9375 Z M 10.578125 11.679688 " fill-opacity="1" fill-rule="nonzero"></path><g clip-path="url(#ad9e705805)"><path fill="#ffffff" d="M 1.09375 1.078125 L 1.09375 69.910156 L 61.125 69.910156 L 61.125 1.078125 Z M 53.339844 61.085938 L 9.421875 61.085938 L 9.421875 10.527344 L 53.339844 10.527344 Z M 53.339844 61.085938 " fill-opacity="1" fill-rule="nonzero"></path></g><path fill="#00539f" d="M 9.421875 61.085938 L 53.339844 61.085938 L 53.339844 10.527344 L 9.421875 10.527344 Z M 10.5625 11.679688 L 52.195312 11.679688 L 52.195312 59.914062 L 10.5625 59.914062 Z M 10.5625 11.679688 " fill-opacity="1" fill-rule="nonzero"></path><path fill="#ffffff" d="M 80.871094 10.714844 C 80.867188 10.328125 80.808594 9.953125 80.683594 9.585938 C 80.5625 9.21875 80.382812 8.882812 80.152344 8.574219 C 79.917969 8.265625 79.644531 8.003906 79.328125 7.785156 C 79.007812 7.566406 78.664062 7.402344 78.292969 7.296875 C 78.695312 7.003906 79.003906 6.636719 79.222656 6.1875 C 79.441406 5.738281 79.539062 5.265625 79.523438 4.769531 C 79.523438 2.304688 77.785156 1.015625 74.484375 1.015625 L 71.933594 1.015625 L 71.933594 14.546875 L 75.476562 14.546875 C 78.90625 14.546875 80.871094 13.148438 80.871094 10.714844 Z M 78.953125 10.605469 C 78.953125 12.175781 77.769531 12.890625 75.34375 12.890625 L 73.875 12.890625 L 73.875 8.398438 L 75.125 8.398438 C 77.738281 8.398438 78.953125 9.097656 78.953125 10.605469 Z M 74.328125 6.84375 L 73.875 6.84375 L 73.875 2.671875 L 74.375 2.671875 C 76.582031 2.671875 77.628906 2.980469 77.628906 4.738281 C 77.605469 6.6875 76.125 6.84375 74.328125 6.84375 Z M 74.328125 6.84375 " fill-opacity="1" fill-rule="nonzero"></path><path fill="#ffffff" d="M 90.816406 12.890625 L 84.84375 12.890625 L 84.84375 7.972656 L 90.636719 7.972656 L 90.636719 6.316406 L 84.84375 6.316406 L 84.84375 2.671875 L 90.816406 2.671875 L 90.816406 1.015625 L 82.925781 1.015625 L 82.925781 14.546875 L 90.816406 14.546875 Z M 90.816406 12.890625 " fill-opacity="1" fill-rule="nonzero"></path><path fill="#ffffff" d="M 105.753906 1.015625 L 103.679688 1.015625 L 99.597656 10.878906 L 95.550781 1.101562 L 95.511719 1.015625 L 93.429688 1.015625 L 99.597656 15.558594 Z M 105.753906 1.015625 " fill-opacity="1" fill-rule="nonzero"></path><path fill="#ffffff" d="M 116.046875 12.890625 L 110.074219 12.890625 L 110.074219 7.972656 L 115.867188 7.972656 L 115.867188 6.316406 L 110.074219 6.316406 L 110.074219 2.671875 L 116.046875 2.671875 L 116.046875 1.015625 L 108.15625 1.015625 L 108.15625 14.546875 L 116.046875 14.546875 Z M 116.046875 12.890625 " fill-opacity="1" fill-rule="nonzero"></path><path fill="#ffffff" d="M 128.652344 14.546875 L 123.957031 8.578125 C 124.4375 8.558594 124.898438 8.445312 125.335938 8.242188 C 125.773438 8.042969 126.160156 7.765625 126.488281 7.414062 C 126.820312 7.0625 127.070312 6.660156 127.246094 6.210938 C 127.417969 5.757812 127.503906 5.292969 127.496094 4.808594 C 127.496094 2.257812 125.695312 1.015625 122.015625 1.015625 L 119.753906 1.015625 L 119.753906 14.546875 L 121.609375 14.546875 L 121.609375 8.726562 L 121.804688 8.726562 L 126.1875 14.484375 L 126.234375 14.546875 Z M 121.609375 2.671875 L 121.953125 2.671875 C 124.222656 2.671875 125.539062 3.042969 125.539062 4.917969 C 125.539062 6.796875 123.738281 7.140625 121.96875 7.140625 L 121.609375 7.140625 Z M 121.609375 2.671875 " fill-opacity="1" fill-rule="nonzero"></path><path fill="#ffffff" d="M 137.371094 12.890625 L 133.324219 12.890625 L 133.324219 1.015625 L 131.40625 1.015625 L 131.40625 14.546875 L 137.371094 14.546875 Z M 137.371094 12.890625 " fill-opacity="1" fill-rule="nonzero"></path><path fill="#ffffff" d="M 143.703125 14.546875 L 143.703125 8.75 L 148.625 1.015625 L 146.402344 1.015625 L 142.746094 6.796875 L 139.132812 1.085938 L 139.09375 1.015625 L 136.871094 1.015625 L 141.785156 8.75 L 141.785156 14.546875 Z M 143.703125 14.546875 " fill-opacity="1" fill-rule="nonzero"></path><path fill="#ffffff" d="M 73.929688 19.375 L 72.011719 19.375 L 72.011719 32.898438 L 73.929688 32.898438 L 73.929688 26.40625 L 81.144531 26.40625 L 81.144531 32.898438 L 83.070312 32.898438 L 83.070312 19.375 L 81.144531 19.375 L 81.144531 24.746094 L 73.929688 24.746094 Z M 73.929688 19.375 " fill-opacity="1" fill-rule="nonzero"></path><path fill="#ffffff" d="M 86.261719 19.375 L 88.179688 19.375 L 88.179688 32.90625 L 86.261719 32.90625 Z M 86.261719 19.375 " fill-opacity="1" fill-rule="nonzero"></path><path fill="#ffffff" d="M 97.242188 31.242188 L 93.195312 31.242188 L 93.195312 19.375 L 91.277344 19.375 L 91.277344 32.898438 L 97.242188 32.898438 Z M 97.242188 31.242188 " fill-opacity="1" fill-rule="nonzero"></path><path fill="#ffffff" d="M 101.65625 19.375 L 99.730469 19.375 L 99.730469 32.898438 L 105.691406 32.898438 L 105.691406 31.242188 L 101.65625 31.242188 Z M 101.65625 19.375 " fill-opacity="1" fill-rule="nonzero"></path><path fill="#ffffff" d="M 112.585938 33.128906 C 115.246094 33.128906 117.335938 31.265625 117.335938 28.894531 C 117.335938 26.65625 115.554688 25.753906 113.730469 25.039062 L 112.742188 24.644531 C 111.765625 24.253906 110.550781 23.75 110.550781 22.714844 C 110.574219 22.433594 110.652344 22.171875 110.78125 21.921875 C 110.910156 21.675781 111.082031 21.460938 111.296875 21.28125 C 111.511719 21.101562 111.753906 20.96875 112.019531 20.886719 C 112.285156 20.804688 112.558594 20.777344 112.835938 20.804688 C 113.34375 20.78125 113.8125 20.898438 114.25 21.15625 C 114.6875 21.410156 115.019531 21.765625 115.246094 22.21875 L 115.316406 22.328125 L 116.882812 21.433594 L 116.804688 21.308594 C 116.390625 20.625 115.835938 20.097656 115.132812 19.71875 C 114.433594 19.339844 113.6875 19.160156 112.890625 19.1875 C 110.472656 19.1875 108.652344 20.695312 108.652344 22.699219 C 108.652344 24.699219 110.269531 25.539062 111.929688 26.222656 L 112.890625 26.601562 C 114.199219 27.144531 115.4375 27.652344 115.4375 29.074219 C 115.402344 29.425781 115.304688 29.757812 115.140625 30.070312 C 114.980469 30.382812 114.765625 30.652344 114.496094 30.882812 C 114.226562 31.109375 113.925781 31.277344 113.589844 31.386719 C 113.257812 31.496094 112.914062 31.535156 112.5625 31.507812 C 112.226562 31.519531 111.902344 31.464844 111.582031 31.355469 C 111.265625 31.242188 110.980469 31.078125 110.722656 30.863281 C 110.464844 30.644531 110.253906 30.390625 110.089844 30.09375 C 109.925781 29.800781 109.820312 29.488281 109.769531 29.152344 L 109.769531 28.996094 L 107.890625 29.476562 L 107.890625 29.609375 C 108.015625 30.132812 108.226562 30.617188 108.519531 31.0625 C 108.816406 31.511719 109.175781 31.898438 109.605469 32.21875 C 110.035156 32.539062 110.503906 32.777344 111.015625 32.933594 C 111.53125 33.089844 112.050781 33.15625 112.585938 33.128906 Z M 112.585938 33.128906 " fill-opacity="1" fill-rule="nonzero"></path><path fill="#ffffff" d="M 80.871094 47.429688 C 80.871094 47.039062 80.8125 46.660156 80.6875 46.292969 C 80.566406 45.921875 80.390625 45.582031 80.15625 45.269531 C 79.925781 44.960938 79.648438 44.695312 79.332031 44.472656 C 79.011719 44.253906 78.667969 44.085938 78.292969 43.980469 C 78.695312 43.6875 79.003906 43.320312 79.222656 42.875 C 79.4375 42.425781 79.539062 41.957031 79.523438 41.460938 C 79.523438 39.023438 77.785156 37.730469 74.484375 37.730469 L 71.933594 37.730469 L 71.933594 51.277344 L 75.476562 51.277344 C 78.90625 51.277344 80.871094 49.863281 80.871094 47.429688 Z M 78.953125 47.347656 C 78.953125 48.917969 77.769531 49.625 75.34375 49.625 L 73.875 49.625 L 73.875 45.109375 L 75.125 45.109375 C 77.738281 45.109375 78.953125 45.816406 78.953125 47.347656 Z M 74.328125 43.585938 L 73.875 43.585938 L 73.875 39.386719 L 74.375 39.386719 C 76.582031 39.386719 77.628906 39.699219 77.628906 41.460938 C 77.605469 43.421875 76.125 43.5625 74.328125 43.5625 Z M 74.328125 43.585938 " fill-opacity="1" fill-rule="nonzero"></path><path fill="#ffffff" d="M 81.613281 51.277344 L 83.726562 51.277344 L 85.496094 47.515625 L 91.566406 47.515625 L 93.257812 51.1875 L 93.257812 51.277344 L 95.386719 51.277344 L 88.570312 36.929688 Z M 88.570312 41.066406 L 90.792969 45.886719 L 86.285156 45.886719 Z M 88.570312 41.066406 " fill-opacity="1" fill-rule="nonzero"></path><path fill="#ffffff" d="M 105.730469 41.53125 C 105.730469 38.976562 103.933594 37.730469 100.253906 37.730469 L 97.992188 37.730469 L 97.992188 51.277344 L 99.910156 51.277344 L 99.910156 45.464844 L 100.105469 45.464844 L 104.496094 51.222656 L 104.535156 51.277344 L 106.882812 51.277344 L 102.1875 45.316406 C 102.667969 45.292969 103.128906 45.183594 103.570312 44.980469 C 104.007812 44.777344 104.394531 44.5 104.726562 44.144531 C 105.058594 43.792969 105.308594 43.390625 105.484375 42.9375 C 105.65625 42.484375 105.742188 42.015625 105.730469 41.53125 Z M 99.886719 39.386719 L 100.230469 39.386719 C 102.5 39.386719 103.8125 39.753906 103.8125 41.632812 C 103.8125 43.507812 102.015625 43.863281 100.246094 43.863281 L 99.886719 43.863281 Z M 99.886719 39.386719 " fill-opacity="1" fill-rule="nonzero"></path><path fill="#ffffff" d="M 70.484375 69.925781 L 72.597656 69.925781 L 74.367188 66.195312 L 80.4375 66.195312 L 82.128906 69.871094 L 82.128906 69.949219 L 84.257812 69.949219 L 77.480469 55.585938 Z M 77.441406 59.71875 L 79.664062 64.539062 L 75.15625 64.539062 Z M 77.441406 59.71875 " fill-opacity="1" fill-rule="nonzero"></path><g clip-path="url(#b7f03835c3)"><path fill="#ffffff" d="M 91.089844 62.066406 L 90.105469 61.679688 C 89.132812 61.28125 87.914062 60.785156 87.914062 59.742188 C 87.9375 59.464844 88.015625 59.199219 88.144531 58.953125 C 88.277344 58.707031 88.449219 58.492188 88.660156 58.3125 C 88.875 58.132812 89.117188 58.003906 89.382812 57.921875 C 89.648438 57.835938 89.921875 57.808594 90.199219 57.832031 C 90.699219 57.808594 91.167969 57.917969 91.601562 58.167969 C 92.039062 58.414062 92.375 58.761719 92.609375 59.207031 L 92.679688 59.316406 L 94.242188 58.421875 L 94.164062 58.296875 C 93.75 57.613281 93.195312 57.085938 92.496094 56.707031 C 91.792969 56.328125 91.046875 56.148438 90.253906 56.175781 C 87.835938 56.175781 86.011719 57.683594 86.011719 59.6875 C 86.011719 61.6875 87.628906 62.53125 89.289062 63.210938 L 90.253906 63.589844 C 91.558594 64.132812 92.796875 64.640625 92.796875 66.0625 C 92.765625 66.414062 92.667969 66.746094 92.503906 67.0625 C 92.34375 67.375 92.125 67.644531 91.859375 67.875 C 91.589844 68.101562 91.289062 68.273438 90.953125 68.382812 C 90.617188 68.488281 90.273438 68.53125 89.921875 68.503906 C 89.589844 68.511719 89.261719 68.460938 88.945312 68.347656 C 88.628906 68.238281 88.339844 68.074219 88.082031 67.855469 C 87.828125 67.640625 87.617188 67.382812 87.453125 67.089844 C 87.289062 66.796875 87.179688 66.484375 87.128906 66.148438 L 87.128906 65.992188 L 85.25 66.472656 L 85.25 66.605469 C 85.375 67.128906 85.582031 67.617188 85.875 68.070312 C 86.167969 68.519531 86.53125 68.90625 86.957031 69.230469 C 87.386719 69.554688 87.859375 69.796875 88.371094 69.953125 C 88.886719 70.109375 89.410156 70.175781 89.945312 70.148438 C 92.609375 70.148438 94.699219 68.285156 94.699219 65.90625 C 94.691406 63.683594 92.90625 62.789062 91.089844 62.066406 Z M 91.089844 62.066406 " fill-opacity="1" fill-rule="nonzero"></path></g><g clip-path="url(#2db174f65b)"><path fill="#ffffff" d="M 103.109375 62.066406 L 102.132812 61.679688 C 101.152344 61.28125 99.941406 60.785156 99.941406 59.742188 C 99.964844 59.460938 100.042969 59.199219 100.171875 58.953125 C 100.300781 58.703125 100.472656 58.488281 100.6875 58.3125 C 100.902344 58.132812 101.144531 58 101.410156 57.917969 C 101.675781 57.835938 101.949219 57.808594 102.226562 57.832031 C 102.726562 57.808594 103.191406 57.917969 103.628906 58.167969 C 104.0625 58.414062 104.394531 58.761719 104.628906 59.207031 L 104.707031 59.316406 L 106.273438 58.421875 L 106.203125 58.296875 C 105.785156 57.617188 105.230469 57.085938 104.53125 56.707031 C 103.832031 56.328125 103.082031 56.152344 102.289062 56.175781 C 99.871094 56.175781 98.046875 57.683594 98.046875 59.6875 C 98.046875 61.6875 99.660156 62.53125 101.316406 63.210938 L 102.28125 63.589844 C 103.585938 64.132812 104.824219 64.640625 104.824219 66.0625 C 104.792969 66.414062 104.695312 66.746094 104.535156 67.0625 C 104.375 67.375 104.160156 67.644531 103.890625 67.875 C 103.621094 68.101562 103.320312 68.269531 102.988281 68.378906 C 102.652344 68.488281 102.308594 68.53125 101.960938 68.503906 C 101.625 68.515625 101.296875 68.460938 100.980469 68.351562 C 100.664062 68.238281 100.375 68.074219 100.117188 67.859375 C 99.859375 67.640625 99.648438 67.386719 99.484375 67.089844 C 99.320312 66.796875 99.214844 66.484375 99.164062 66.148438 L 99.164062 65.992188 L 97.28125 66.472656 L 97.28125 66.605469 C 97.402344 67.128906 97.609375 67.617188 97.90625 68.066406 C 98.199219 68.519531 98.558594 68.90625 98.988281 69.230469 C 99.417969 69.554688 99.886719 69.792969 100.402344 69.953125 C 100.914062 70.109375 101.4375 70.175781 101.976562 70.148438 C 104.636719 70.148438 106.726562 68.285156 106.726562 65.90625 C 106.742188 63.683594 104.941406 62.789062 103.109375 62.066406 Z M 103.109375 62.066406 " fill-opacity="1" fill-rule="nonzero"></path></g><g clip-path="url(#0404259c49)"><path fill="#ffffff" d="M 116.648438 56.175781 C 112.359375 56.175781 108.871094 59.316406 108.871094 63.179688 C 108.871094 67.042969 112.359375 70.164062 116.648438 70.164062 C 120.9375 70.164062 124.425781 67.019531 124.425781 63.179688 C 124.425781 59.339844 120.9375 56.175781 116.648438 56.175781 Z M 116.648438 68.503906 C 113.417969 68.503906 110.789062 66.148438 110.789062 63.164062 C 110.789062 60.179688 113.417969 57.832031 116.648438 57.832031 C 119.878906 57.832031 122.511719 60.226562 122.511719 63.164062 C 122.511719 66.101562 119.878906 68.503906 116.648438 68.503906 Z M 116.648438 68.503906 " fill-opacity="1" fill-rule="nonzero"></path></g><g clip-path="url(#f44e50ade2)"><path fill="#ffffff" d="M 134.476562 56.175781 C 130.179688 56.175781 126.6875 59.316406 126.6875 63.242188 C 126.6875 67.171875 130.179688 70.1875 134.476562 70.1875 C 136.085938 70.183594 137.570312 69.738281 138.921875 68.859375 L 138.992188 68.859375 L 138.992188 66.566406 L 138.75 66.785156 C 138.15625 67.328125 137.484375 67.746094 136.738281 68.042969 C 135.992188 68.339844 135.214844 68.496094 134.414062 68.503906 C 131.28125 68.503906 128.605469 66.0625 128.605469 63.164062 C 128.605469 60.269531 131.25 57.832031 134.375 57.832031 C 135.183594 57.835938 135.96875 57.984375 136.722656 58.28125 C 137.476562 58.578125 138.152344 59 138.75 59.554688 L 138.992188 59.773438 L 138.992188 57.558594 L 138.929688 57.511719 C 137.582031 56.597656 136.097656 56.152344 134.476562 56.175781 Z M 134.476562 56.175781 " fill-opacity="1" fill-rule="nonzero"></path></g><path fill="#ffffff" d="M 143.058594 56.402344 L 144.976562 56.402344 L 144.976562 69.933594 L 143.058594 69.933594 Z M 143.058594 56.402344 " fill-opacity="1" fill-rule="nonzero"></path><path fill="#ffffff" d="M 147.167969 69.925781 L 149.273438 69.925781 L 151.042969 66.195312 L 157.125 66.195312 L 158.8125 69.871094 L 158.851562 69.949219 L 160.972656 69.949219 L 154.164062 55.609375 Z M 154.117188 59.71875 L 156.347656 64.539062 L 151.839844 64.539062 Z M 154.117188 59.71875 " fill-opacity="1" fill-rule="nonzero"></path><path fill="#ffffff" d="M 160.527344 58.0625 L 164.066406 58.0625 L 164.066406 69.925781 L 165.980469 69.925781 L 165.980469 58.0625 L 169.558594 58.0625 L 169.558594 56.402344 L 160.527344 56.402344 Z M 160.527344 58.0625 " fill-opacity="1" fill-rule="nonzero"></path><path fill="#ffffff" d="M 172.539062 56.402344 L 174.457031 56.402344 L 174.457031 69.933594 L 172.539062 69.933594 Z M 172.539062 56.402344 " fill-opacity="1" fill-rule="nonzero"></path><g clip-path="url(#5bebb9c5cf)"><path fill="#ffffff" d="M 185 56.175781 C 180.710938 56.175781 177.21875 59.316406 177.21875 63.179688 C 177.21875 67.042969 180.710938 70.164062 185 70.164062 C 189.289062 70.164062 192.785156 67.019531 192.785156 63.179688 C 192.785156 59.339844 189.253906 56.175781 185 56.175781 Z M 185 68.503906 C 181.765625 68.503906 179.136719 66.148438 179.136719 63.164062 C 179.136719 60.179688 181.765625 57.832031 185 57.832031 C 188.230469 57.832031 190.859375 60.226562 190.859375 63.164062 C 190.859375 66.101562 188.199219 68.503906 185 68.503906 Z M 185 68.503906 " fill-opacity="1" fill-rule="nonzero"></path></g><g clip-path="url(#e0b1bb3322)"><path fill="#ffffff" d="M 206.980469 56.402344 L 206.980469 66.472656 L 195.554688 55.648438 L 195.554688 69.925781 L 197.472656 69.925781 L 197.472656 59.914062 L 208.90625 70.71875 L 208.90625 56.402344 Z M 206.980469 56.402344 " fill-opacity="1" fill-rule="nonzero"></path></g><path fill="#00539f" d="M 38.945312 34.179688 L 33.335938 45.683594 C 32.804688 44.945312 32.121094 44.390625 31.292969 44.019531 C 31.707031 43.605469 32.023438 43.125 32.238281 42.578125 C 32.457031 42.03125 32.554688 41.464844 32.539062 40.878906 C 32.546875 39.894531 32.285156 38.988281 31.753906 38.160156 L 32.882812 38.160156 L 32.882812 29.703125 L 41.488281 29.703125 L 41.488281 38.152344 L 44.753906 38.152344 L 44.753906 19.777344 L 41.53125 19.777344 L 41.53125 26.773438 L 32.921875 26.773438 L 32.921875 19.777344 L 29.640625 19.777344 L 29.640625 36.355469 C 28.34375 35.828125 26.996094 35.582031 25.597656 35.625 L 24.929688 35.625 C 27.734375 34.925781 29.34375 33.160156 29.34375 30.597656 C 29.347656 30.109375 29.28125 29.628906 29.144531 29.160156 C 29.007812 28.6875 28.808594 28.25 28.542969 27.839844 C 28.277344 27.425781 27.957031 27.0625 27.585938 26.746094 C 27.210938 26.429688 26.804688 26.175781 26.355469 25.980469 C 26.769531 25.566406 27.082031 25.082031 27.296875 24.539062 C 27.515625 23.992188 27.613281 23.425781 27.597656 22.839844 C 27.597656 19.460938 25.132812 17.601562 20.65625 17.601562 L 16.949219 17.601562 L 16.949219 35.976562 L 21.886719 35.976562 L 21.886719 54.109375 L 32.84375 54.109375 L 35.144531 49.21875 L 42.570312 49.21875 L 44.824219 54.109375 L 48.449219 54.109375 Z M 25.15625 38.5625 L 25.417969 38.5625 C 28.445312 38.5625 29.273438 39.054688 29.273438 40.871094 C 29.273438 42.863281 28.023438 43.226562 25.363281 43.226562 L 25.125 43.226562 Z M 25.15625 46.015625 L 26.433594 46.015625 C 30.496094 46.015625 31.019531 47.339844 31.019531 48.503906 C 31.019531 49.664062 30.574219 51.078125 26.707031 51.078125 L 25.140625 51.078125 Z M 20.21875 20.53125 L 20.476562 20.53125 C 23.507812 20.53125 24.328125 21.027344 24.328125 22.839844 C 24.328125 24.835938 23.085938 25.195312 20.414062 25.195312 L 20.179688 25.195312 Z M 21.785156 33.046875 L 20.21875 33.046875 L 20.21875 27.984375 L 21.488281 27.984375 C 25.558594 27.984375 26.074219 29.308594 26.074219 30.464844 C 26.074219 31.621094 25.628906 33.046875 21.769531 33.046875 Z M 36.527344 46.304688 L 38.875 41.332031 L 41.175781 46.304688 Z M 36.527344 46.304688 " fill-opacity="1" fill-rule="nonzero"></path></svg>