<?xml version="1.0" encoding="UTF-8" standalone="no"?><!DOCTYPE svg PUBLIC "-//W3C//DTD SVG 1.1//EN" "http://www.w3.org/Graphics/SVG/1.1/DTD/svg11.dtd"><svg width="100%" height="100%" viewBox="0 0 280 95" version="1.1" xmlns="http://www.w3.org/2000/svg" xmlns:xlink="http://www.w3.org/1999/xlink" xml:space="preserve" xmlns:serif="http://www.serif.com/" style="fill-rule:evenodd;clip-rule:evenodd;stroke-linejoin:round;stroke-miterlimit:2;"><path d="M12.563,81.448l58.557,-0l-0,-67.412l-58.558,0l0,67.412Zm1.521,-65.875l55.511,-0l-0,64.312l-55.511,0l0,-64.312Z" style="fill:#fff;fill-rule:nonzero;"/><path d="M107.828,14.286c-0.005,-0.515 -0.083,-1.015 -0.25,-1.505c-0.161,-0.489 -0.401,-0.937 -0.708,-1.349c-0.313,-0.411 -0.677,-0.76 -1.099,-1.052c-0.427,-0.291 -0.886,-0.51 -1.38,-0.651c0.536,-0.39 0.948,-0.88 1.239,-1.479c0.292,-0.599 0.422,-1.229 0.401,-1.891c0,-3.286 -2.317,-5.005 -6.719,-5.005l-3.401,0l0,18.042l4.724,-0c4.573,-0 7.193,-1.865 7.193,-5.11Zm-2.557,-0.145c-0,2.093 -1.578,3.047 -4.813,3.047l-1.958,-0l-0,-5.99l1.667,-0c3.484,-0 5.104,0.932 5.104,2.943Zm-6.167,-5.016l-0.604,0l-0,-5.562l0.667,-0c2.942,-0 4.338,0.411 4.338,2.755c-0.031,2.599 -2.005,2.807 -4.401,2.807Z" style="fill:#fff;fill-rule:nonzero;"/><path d="M121.089,17.188l-7.964,-0l0,-6.558l7.724,0l-0,-2.208l-7.724,-0l0,-4.859l7.964,-0l-0,-2.209l-10.521,0l-0,18.042l10.521,-0l-0,-2.208Z" style="fill:#fff;fill-rule:nonzero;"/><path d="M141.005,1.354l-2.765,0l-5.443,13.151l-5.396,-13.036l-0.052,-0.115l-2.776,0l8.224,19.391l8.208,-19.391Z" style="fill:#fff;fill-rule:nonzero;"/><path d="M154.729,17.188l-7.963,-0l-0,-6.558l7.724,0l-0,-2.208l-7.724,-0l-0,-4.859l7.963,-0l0,-2.209l-10.521,0l0,18.042l10.521,-0l0,-2.208Z" style="fill:#fff;fill-rule:nonzero;"/><path d="M171.536,19.396l-6.26,-7.958c0.641,-0.027 1.255,-0.178 1.839,-0.448c0.583,-0.266 1.099,-0.636 1.536,-1.105c0.443,-0.468 0.776,-1.005 1.01,-1.604c0.23,-0.604 0.344,-1.224 0.334,-1.87c-0,-3.401 -2.401,-5.057 -7.308,-5.057l-3.015,0l-0,18.042l2.474,-0l-0,-7.761l0.26,0l5.844,7.678l0.063,0.083l3.223,-0Zm-9.39,-15.833l0.458,-0c3.026,-0 4.781,0.494 4.781,2.994c0,2.506 -2.401,2.964 -4.76,2.964l-0.479,-0l-0,-5.958Z" style="fill:#fff;fill-rule:nonzero;"/><path d="M183.161,17.188l-5.395,-0l-0,-15.834l-2.558,0l0,18.042l7.953,-0l0,-2.208Z" style="fill:#fff;fill-rule:nonzero;"/><path d="M191.604,19.396l0,-7.729l6.563,-10.313l-2.964,0l-4.875,7.709l-4.818,-7.615l-0.052,-0.094l-2.963,0l6.552,10.313l-0,7.729l2.557,-0Z" style="fill:#fff;fill-rule:nonzero;"/><path d="M98.573,25.833l-2.557,0l-0,18.032l2.557,-0l-0,-8.657l9.62,0l-0,8.657l2.567,-0l0,-18.032l-2.567,0l-0,7.162l-9.62,-0l-0,-7.162Z" style="fill:#fff;fill-rule:nonzero;"/><rect x="115.016" y="25.833" width="2.557" height="18.042" style="fill:#fff;fill-rule:nonzero;"/><path d="M129.656,41.656l-5.396,0l0,-15.823l-2.557,0l0,18.032l7.953,-0l0,-2.209Z" style="fill:#fff;fill-rule:nonzero;"/><path d="M135.542,25.833l-2.568,0l-0,18.032l7.948,-0l-0,-2.209l-5.38,0l-0,-15.823Z" style="fill:#fff;fill-rule:nonzero;"/><path d="M150.115,44.172c3.546,-0 6.333,-2.484 6.333,-5.646c-0,-2.984 -2.375,-4.187 -4.807,-5.141l-1.318,-0.526c-1.302,-0.52 -2.922,-1.192 -2.922,-2.573c0.031,-0.375 0.135,-0.723 0.307,-1.057c0.172,-0.328 0.401,-0.614 0.688,-0.854c0.286,-0.24 0.609,-0.417 0.963,-0.526c0.355,-0.109 0.719,-0.146 1.089,-0.109c0.677,-0.032 1.302,0.125 1.885,0.468c0.584,0.339 1.026,0.813 1.328,1.417l0.094,0.146l2.089,-1.193l-0.104,-0.167c-0.552,-0.911 -1.292,-1.614 -2.23,-2.119c-0.932,-0.506 -1.927,-0.745 -2.989,-0.709c-3.224,0 -5.651,2.011 -5.651,4.683c-0,2.666 2.156,3.786 4.37,4.698l1.281,0.505c1.745,0.724 3.396,1.401 3.396,3.297c-0.047,0.468 -0.177,0.911 -0.396,1.328c-0.214,0.416 -0.5,0.776 -0.86,1.083c-0.359,0.302 -0.76,0.526 -1.208,0.672c-0.443,0.146 -0.901,0.198 -1.37,0.161c-0.448,0.016 -0.88,-0.057 -1.307,-0.203c-0.422,-0.151 -0.802,-0.369 -1.146,-0.656c-0.344,-0.292 -0.625,-0.63 -0.844,-1.026c-0.218,-0.391 -0.359,-0.807 -0.427,-1.255l0,-0.209l-2.505,0.641l0,0.177c0.167,0.698 0.448,1.344 0.839,1.938c0.396,0.599 0.875,1.114 1.448,1.541c0.573,0.427 1.198,0.745 1.88,0.953c0.687,0.209 1.38,0.297 2.094,0.261Z" style="fill:#fff;fill-rule:nonzero;"/><path d="M107.828,63.24c0,-0.521 -0.078,-1.026 -0.245,-1.516c-0.161,-0.495 -0.395,-0.948 -0.708,-1.365c-0.307,-0.411 -0.677,-0.765 -1.099,-1.062c-0.427,-0.292 -0.885,-0.516 -1.385,-0.656c0.536,-0.391 0.948,-0.881 1.239,-1.474c0.287,-0.599 0.422,-1.224 0.401,-1.886c0,-3.25 -2.317,-4.974 -6.718,-4.974l-3.402,0l0,18.063l4.724,-0c4.573,-0 7.193,-1.886 7.193,-5.13Zm-2.557,-0.11c-0,2.094 -1.578,3.037 -4.813,3.037l-1.958,-0l0,-6.021l1.667,-0c3.484,-0 5.104,0.943 5.104,2.984Zm-6.167,-5.015l-0.604,-0l0,-5.599l0.667,-0c2.942,-0 4.338,0.416 4.338,2.765c-0.031,2.615 -2.005,2.802 -4.401,2.802l0,0.032Z" style="fill:#fff;fill-rule:nonzero;"/><path d="M108.818,68.37l2.817,-0l2.36,-5.016l8.094,0l2.255,4.896l-0,0.12l2.838,-0l-9.088,-19.13l-9.276,19.13Zm9.276,-13.615l2.963,6.427l-6.01,0l3.047,-6.427Z" style="fill:#fff;fill-rule:nonzero;"/><path d="M140.974,55.375c-0,-3.406 -2.396,-5.068 -7.302,-5.068l-3.016,0l0,18.063l2.558,-0l-0,-7.75l0.26,-0l5.854,7.677l0.052,0.073l3.13,-0l-6.26,-7.948c0.641,-0.031 1.255,-0.177 1.844,-0.448c0.583,-0.271 1.099,-0.641 1.541,-1.115c0.443,-0.468 0.776,-1.005 1.011,-1.609c0.229,-0.604 0.344,-1.229 0.328,-1.875Zm-7.792,-2.859l0.459,-0c3.026,-0 4.776,0.489 4.776,2.994c-0,2.5 -2.396,2.974 -4.756,2.974l-0.479,0l0,-5.968Z" style="fill:#fff;fill-rule:nonzero;"/><path d="M93.979,93.234l2.818,0l2.359,-4.974l8.094,0l2.255,4.901l0,0.105l2.839,-0l-9.037,-19.151l-9.328,19.119Zm9.276,-13.609l2.964,6.427l-6.011,0l3.047,-6.427Z" style="fill:#fff;fill-rule:nonzero;"/><g><path d="M121.453,82.755l-1.312,-0.515c-1.297,-0.532 -2.922,-1.193 -2.922,-2.584c0.031,-0.37 0.135,-0.724 0.307,-1.052c0.177,-0.328 0.406,-0.614 0.688,-0.854c0.286,-0.24 0.609,-0.411 0.963,-0.521c0.354,-0.114 0.719,-0.151 1.089,-0.12c0.666,-0.031 1.291,0.115 1.869,0.448c0.584,0.328 1.032,0.792 1.344,1.386l0.094,0.146l2.083,-1.193l-0.104,-0.167c-0.552,-0.911 -1.292,-1.614 -2.224,-2.12c-0.937,-0.505 -1.932,-0.744 -2.989,-0.708c-3.224,0 -5.657,2.01 -5.657,4.682c0,2.667 2.157,3.792 4.37,4.698l1.287,0.505c1.739,0.724 3.39,1.402 3.39,3.297c-0.041,0.469 -0.172,0.912 -0.39,1.334c-0.214,0.416 -0.506,0.776 -0.86,1.083c-0.359,0.302 -0.76,0.531 -1.208,0.677c-0.448,0.141 -0.906,0.198 -1.375,0.162c-0.443,0.01 -0.88,-0.058 -1.302,-0.209c-0.422,-0.146 -0.808,-0.364 -1.151,-0.656c-0.339,-0.286 -0.62,-0.63 -0.839,-1.021c-0.219,-0.39 -0.364,-0.807 -0.432,-1.255l-0,-0.208l-2.505,0.64l-0,0.177c0.166,0.698 0.442,1.349 0.833,1.953c0.391,0.599 0.875,1.115 1.443,1.547c0.573,0.433 1.203,0.756 1.885,0.964c0.688,0.208 1.386,0.297 2.099,0.26c3.552,0 6.339,-2.484 6.339,-5.656c-0.011,-2.964 -2.391,-4.156 -4.813,-5.12Z" style="fill:#fff;fill-rule:nonzero;"/></g><g><path d="M137.479,82.755l-1.302,-0.515c-1.307,-0.532 -2.922,-1.193 -2.922,-2.584c0.031,-0.375 0.136,-0.724 0.307,-1.052c0.172,-0.333 0.402,-0.62 0.688,-0.854c0.286,-0.24 0.609,-0.417 0.964,-0.526c0.354,-0.109 0.718,-0.146 1.088,-0.115c0.667,-0.031 1.287,0.115 1.87,0.448c0.578,0.328 1.021,0.792 1.333,1.386l0.104,0.146l2.089,-1.193l-0.094,-0.167c-0.557,-0.906 -1.297,-1.614 -2.229,-2.12c-0.932,-0.505 -1.932,-0.739 -2.99,-0.708c-3.224,0 -5.656,2.01 -5.656,4.682c0,2.667 2.151,3.792 4.36,4.698l1.286,0.505c1.74,0.724 3.391,1.402 3.391,3.297c-0.042,0.469 -0.172,0.912 -0.386,1.334c-0.213,0.416 -0.5,0.776 -0.859,1.083c-0.36,0.302 -0.761,0.526 -1.203,0.672c-0.448,0.146 -0.907,0.203 -1.37,0.167c-0.448,0.015 -0.885,-0.058 -1.307,-0.204c-0.422,-0.151 -0.808,-0.369 -1.151,-0.656c-0.344,-0.291 -0.625,-0.63 -0.844,-1.026c-0.219,-0.39 -0.36,-0.807 -0.427,-1.255l-0,-0.208l-2.511,0.64l0,0.177c0.162,0.698 0.438,1.349 0.834,1.948c0.39,0.604 0.869,1.12 1.442,1.552c0.573,0.433 1.198,0.75 1.886,0.964c0.682,0.208 1.38,0.297 2.099,0.26c3.547,0 6.333,-2.484 6.333,-5.656c0.021,-2.964 -2.38,-4.156 -4.823,-5.12Z" style="fill:#fff;fill-rule:nonzero;"/></g><g><path d="M155.531,74.901c-5.719,0 -10.37,4.188 -10.37,9.339c0,5.151 4.651,9.312 10.37,9.312c5.719,0 10.37,-4.193 10.37,-9.312c0,-5.12 -4.651,-9.339 -10.37,-9.339Zm0,16.438c-4.307,-0 -7.812,-3.141 -7.812,-7.12c-0,-3.979 3.505,-7.11 7.812,-7.11c4.308,0 7.818,3.193 7.818,7.11c-0,3.916 -3.51,7.12 -7.818,7.12Z" style="fill:#fff;fill-rule:nonzero;"/></g><g><path d="M179.302,74.901c-5.729,0 -10.385,4.188 -10.385,9.422c-0,5.24 4.656,9.26 10.385,9.26c2.146,-0.005 4.125,-0.599 5.927,-1.77l0.094,-0l-0,-3.058l-0.323,0.292c-0.792,0.724 -1.687,1.281 -2.682,1.677c-0.995,0.396 -2.032,0.604 -3.099,0.615c-4.177,-0 -7.745,-3.256 -7.745,-7.12c-0,-3.86 3.526,-7.11 7.693,-7.11c1.078,0.006 2.125,0.204 3.13,0.599c1.005,0.396 1.906,0.959 2.703,1.698l0.323,0.292l-0,-2.953l-0.083,-0.063c-1.797,-1.218 -3.776,-1.812 -5.938,-1.781Z" style="fill:#fff;fill-rule:nonzero;"/></g><rect x="190.745" y="75.203" width="2.557" height="18.042" style="fill:#fff;fill-rule:nonzero;"/><path d="M196.224,93.234l2.807,0l2.36,-4.974l8.109,0l2.25,4.901l0.052,0.105l2.828,-0l-9.078,-19.12l-9.328,19.088Zm9.266,-13.609l2.974,6.427l-6.011,0l3.037,-6.427Z" style="fill:#fff;fill-rule:nonzero;"/><path d="M214.036,77.417l4.719,-0l0,15.817l2.552,0l0,-15.817l4.771,-0l0,-2.214l-12.042,0l0,2.214Z" style="fill:#fff;fill-rule:nonzero;"/><rect x="230.052" y="75.203" width="2.557" height="18.042" style="fill:#fff;fill-rule:nonzero;"/><g><path d="M246.667,74.901c-5.719,0 -10.375,4.188 -10.375,9.339c-0,5.151 4.656,9.312 10.375,9.312c5.718,0 10.38,-4.193 10.38,-9.312c-0,-5.12 -4.708,-9.339 -10.38,-9.339Zm-0,16.438c-4.313,-0 -7.818,-3.141 -7.818,-7.12c-0,-3.979 3.505,-7.11 7.818,-7.11c4.307,0 7.812,3.193 7.812,7.11c0,3.916 -3.547,7.12 -7.812,7.12Z" style="fill:#fff;fill-rule:nonzero;"/></g><g><clipPath id="_clip1"><rect x="260" y="73.333" width="18.542" height="20.677"/></clipPath><g clip-path="url(#_clip1)"><path d="M275.974,75.203l-0,13.427l-15.234,-14.432l-0,19.036l2.557,0l-0,-13.349l15.245,14.407l-0,-19.089l-2.568,0Z" style="fill:#fff;fill-rule:nonzero;"/></g></g><path d="M51.927,45.573l-7.479,15.338c-0.708,-0.984 -1.62,-1.723 -2.724,-2.218c0.552,-0.552 0.974,-1.193 1.26,-1.922c0.292,-0.729 0.422,-1.485 0.401,-2.266c0.011,-1.312 -0.338,-2.521 -1.046,-3.625l1.505,0l-0,-11.276l11.474,0l-0,11.266l4.354,-0l-0,-24.5l-4.297,-0l-0,9.328l-11.479,-0l-0,-9.328l-4.375,-0l-0,22.104c-1.729,-0.703 -3.526,-1.031 -5.391,-0.974l-0.89,0c3.739,-0.932 5.885,-3.286 5.885,-6.703c0.005,-0.651 -0.083,-1.292 -0.266,-1.917c-0.182,-0.63 -0.448,-1.213 -0.802,-1.76c-0.354,-0.552 -0.781,-1.037 -1.276,-1.459c-0.5,-0.421 -1.041,-0.76 -1.64,-1.02c0.552,-0.552 0.968,-1.198 1.255,-1.922c0.291,-0.729 0.422,-1.485 0.401,-2.266c-0,-4.505 -3.287,-6.984 -9.255,-6.984l-4.943,-0l-0,24.5l6.583,-0l0,24.177l14.61,-0l3.067,-6.521l9.901,0l3.006,6.521l4.833,-0l-12.672,-26.573Zm-18.385,5.844l0.349,-0c4.036,-0 5.14,0.656 5.14,3.078c0,2.656 -1.666,3.14 -5.213,3.14l-0.318,0l0.042,-6.218Zm-0,9.937l1.703,0c5.416,0 6.114,1.766 6.114,3.318c0,1.547 -0.593,3.432 -5.75,3.432l-2.088,0l0.021,-6.75Zm-6.584,-33.979l0.344,0c4.042,0 5.135,0.661 5.135,3.078c0,2.662 -1.656,3.141 -5.218,3.141l-0.313,-0l0.052,-6.219Zm2.089,16.688l-2.089,-0l0,-6.75l1.693,-0c5.427,-0 6.115,1.765 6.115,3.307c-0,1.541 -0.594,3.443 -5.74,3.443l0.021,-0Zm19.656,17.677l3.13,-6.631l3.068,6.631l-6.198,-0Z" style="fill:#fff;fill-rule:nonzero;"/></svg>