<svg id="logo" xmlns="http://www.w3.org/2000/svg" xml:space="preserve" fill-rule="evenodd" stroke-linejoin="round" stroke-miterlimit="2" clip-rule="evenodd" viewBox="0 0 319 76"><g transform="translate(-6.91 -6.56)"><g id="fbank-logo-stacked" fill-rule="nonzero"><path fill="#fff" d="M148.32 18h-1.44c-.6-7.87-3.79-10.11-11.31-10.11-5.78 0-6.52 0-6.52 4.93v9.42h3c5 0 6.57-1.65 6.57-7h1.4v15.58h-1.4c0-5.39-1.54-7.08-6.57-7.08h-3v12.75c0 3 .49 3.49 3.53 3.49h2v1.49h-15V40h1.94c2.5 0 2.89-.75 2.89-3.49V11.39c0-2.74-.34-3.49-2.89-3.49h-1.94V6.56h28.64l.1 11.44ZM160 40.21h1.69v1.26h-12.1v-1.26h1.64c2.11 0 2.45-.63 2.45-3V16c0-2.32-.3-2.95-2.45-2.95h-1.64v-1.12h12.52c7.8 0 11.72 2.27 11.72 6.7 0 3.63-3.08 6.45-8.6 7.25 3.75.84 5.14 2.61 5.81 6.32.67 3.71.13 7 2.36 7 1.35 0 2.15-1.43 2.41-4.34h1.22c0 4.55-2 7.08-4.89 7.08-3.29 0-4.85-3-5.31-9.11-.38-4.67-.76-6.4-5.4-6.4h-3.83v10.83c0 2.32.29 2.95 2.4 2.95Zm1.73-15c4.93 0 7.33-1.89 7.33-6.23 0-4.34-2.44-5.82-7.54-5.82-3.8 0-4 .42-4 3.84v8.21h4.21Zm16.69 15h1.64c2.11 0 2.45-.63 2.45-3V16c0-2.32-.3-2.95-2.45-2.95h-1.64v-1.12h23.85l.3 9h-1.1c-.84-6.16-3.41-7.84-9.48-7.84-5 0-5.61 0-5.61 4.17v8h2.83c4.26 0 5.6-1.4 5.6-5.91H196v13.11h-1.18c0-4.56-1.34-6-5.6-6h-2.83v10.08c0 3.59.85 3.67 4.94 3.67h.54c6.07 0 8.73-2.07 9.49-8.55h1.05l-.17 9.81h-23.82v-1.26Zm28.83 0c3.41 0 4-1.56 4-5.86v-17.7c0-2.95-.33-3.58-3.12-3.58h-.92v-1.14h8.85l7.21 23.52 7.33-23.52h8.85v1.14h-1.65c-2.15 0-2.44.67-2.44 2.95v21.24c0 2.32.29 3 2.44 3h1.69v1.26h-12.1v-1.31H229c2.11 0 2.44-.63 2.44-3V13.7l-8.85 28.15h-1.26l-8.69-28.78v21.37c0 4.25.38 5.77 3.84 5.77h.13v1.26h-9.4l.04-1.26Zm59.43-13.53c0 9.44-5.65 15.47-12.86 15.47-7.21 0-12.82-6.03-12.82-15.47 0-9.44 5.65-15.47 12.81-15.47s12.87 6.03 12.87 15.47Zm-12.86-14.29c-5.18 0-8.13 4.85-8.13 14.25s2.95 14.2 8.13 14.2c5.18 0 8.18-4.84 8.18-14.2s-3-14.25-8.18-14.25Zm15.09 27.82h.21c2.74 0 3.8-1.73 3.8-5.61V16.73c0-2.57-.3-3.62-2.79-3.62h-1.22v-1.18h7.25l14.71 23V19.09c0-4.25-.38-5.85-4.13-6v-1.16h9.36v1.18c-3.5.17-3.88 1.77-3.88 6v22.66h-1.35l-16.61-25.84V34.6c0 4.09.68 5.61 3.88 5.61h.13v1.26h-9.36v-1.26Zm36.75 0h1.69c2.7 0 3-.46 3-3v-20.6c0-2.45-.63-3.46-2.44-3.46-4.3 0-7 3.58-7.29 10h-1l.3-11.25h24.83l.25 11.28h-1c-.3-6.45-3-10-7.29-10-1.81 0-2.45 1-2.45 3.46v20.62c0 2.53.34 3 3.08 3h1.6v1.26h-13.28v-1.31Zm-186.03 40h1.94c2.55 0 2.89-.69 2.89-3.48V51.62c0-2.74-.34-3.49-2.89-3.49h-1.94v-1.34h15.94c8.12 0 12.31 3.19 12.31 8.12 0 4-3.09 7.12-8.87 8.42 6.28.84 9.81 4.33 9.81 9.06 0 5.83-5.13 9.32-15.49 9.32h-13.7v-1.5Zm13.15-17.63c6.73 0 9.82-1.94 9.82-7.22 0-5.83-3.29-7.23-9.57-7.23-3.58 0-4 .65-4 3.94v10.51h3.75Zm-3.73 13.9c0 3.44.59 3.73 4.73 3.73 6.47 0 9.61-2.39 9.61-8.07s-3-8-9.26-8h-5.08v12.34Zm20 3.96h.29c2.78 0 4.51-1.64 5.86-5.31l8.3-23h2.36l9.07 25.29c.76 2.19 1.3 3 3.66 3h.93v1.27h-12.35v-1.25h.89c2.15 0 3-.08 3-1.26a4.076 4.076 0 0 0-.25-1.1l-1.94-5.56h-11.35l-1.22 3.25a6.916 6.916 0 0 0-.42 2.4c0 1.47 1.13 2.27 3.37 2.27h.17v1.27h-10.37v-1.27ZM168.27 71l-5-14.5-5.2 14.5h10.2Zm11.8 9.44h.21c2.74 0 3.79-1.72 3.79-5.6V57c0-2.56-.29-3.62-2.78-3.62h-1.22v-1.22h7.25l14.71 23V59.33c0-4.26-.38-5.86-4.13-6v-1.17h9.35v1.18c-3.49.17-3.87 1.77-3.87 6V82H202l-16.58-25.84v18.68c0 4.09.68 5.6 3.88 5.6h.13v1.27h-9.36v-1.27Zm41.05 0h1.69v1.27h-12.1v-1.27h1.64c2.11 0 2.45-.63 2.45-3V56.25c0-2.32-.3-3-2.45-3h-1.64v-1.09h12.1v1.14h-1.69c-2.15 0-2.44.68-2.44 3v11.58l9.69-9.65c1.35-1.39 2.07-2.44 2.07-3.25 0-1.09-.85-1.64-2.45-1.64h-1v-1.18h11.55v1.18c-2.78 0-5 1.35-7.63 4l-5.9 6 8.47 13.28c1.73 2.7 3.16 3.83 5.74 3.83h.67v1.27H227v-1.28h1.14c1.52 0 2.27-.38 2.27-1.22a3.001 3.001 0 0 0-.67-1.64L222.34 66l-3.66 3.62v7.88c0 2.31.32 2.94 2.44 2.94Z"/><path fill="#eeb123" d="M6.91 7.24H111.92V81.36999999999999H6.91z"/><path d="M63.39 22.38a32.326 32.326 0 0 0-10.24-5.53C44.74 14 33.9 15.24 25 20.5c-9.48 5.62-9.16 14.44-9.16 14.44v36.32c0 .69-.07 1.32.22 1.37.29.05 7 0 8.21.07h9.91c.46 0 .46 0 .46-1.65v-36.2c0-4.26 9.18-7.62 14.42-3.93 1 .67 1.31 1.29 1.55 1.16.24-.13 12.66-8.22 13.51-8.77.24-.15-.21-.46-.73-.93Z"/><path d="M43.33 36.44h-.05c-3.686 0-6.72 3.033-6.72 6.72 0 3.686 3.034 6.72 6.72 6.72S50 46.846 50 43.16v-.01c0-3.666-3.004-6.688-6.67-6.71Zm53.33 3.4a31.678 31.678 0 0 0-22.81-5.48 10.643 10.643 0 0 1-3.16.18c-.09 0-.16-.34-.32-.84a34.802 34.802 0 0 0-2.15-4.86c-1.06-1.84-2.06-3.6-2.37-3.44-.56.29-13.57 8.6-13.93 9-.36.4.51 1.57.51 4.06v8.2c0 6.71-.89 10.38 3.47 16.66 3.89 5.59 13.27 9.47 21.75 9.47S95 70.4 100.68 63.52c5.68-6.88 4.46-17.52-4.02-23.68ZM78.18 61c-4.049 0-7.38-3.331-7.38-7.38 0-4.049 3.331-7.38 7.38-7.38 4.049 0 7.38 3.331 7.38 7.38v.01c0 4.043-3.327 7.37-7.37 7.37h-.01Z"/><path fill="#eeb123" d="M78.18 46.21c-4.049 0-7.38 3.331-7.38 7.38 0 4.049 3.331 7.38 7.38 7.38 4.049 0 7.38-3.331 7.38-7.38v-.01c0-4.043-3.327-7.37-7.37-7.37h-.01Z"/></g></g></svg>