<svg id="logo" xmlns="http://www.w3.org/2000/svg" xmlns:xlink="http://www.w3.org/1999/xlink" viewBox="0 0 640 96.13" shape-rendering="geometricPrecision" text-rendering="geometricPrecision"><a href="/"><g><g><path id="eDuMsRTcgtw5" d="M44.68,91.32c-2.15,0-4.27-.57-6.12-1.64L1.06,68.03v3.94c0,.41.22.78.57.99L36.58,93.14c2.45,1.42,5.26,2.17,8.11,2.17s5.66-.75,8.11-2.17L87.75,72.96c.35-.2.57-.58.57-.99v-3.93L50.81,89.68c-1.86,1.07-3.97,1.64-6.13,1.64Z" fill="#fff" transform="translate(0 0)" fill-opacity="1"></path><path id="eDuMsRTcgtw6" d="M44.68,79.4c-2.15,0-4.27-.57-6.12-1.64L1.06,56.11v3.94c0,.41.22.78.57.99L36.57,81.2c2.45,1.42,5.26,2.17,8.11,2.17s5.66-.75,8.11-2.17L87.74,61.02c.35-.2.57-.58.57-.99v-3.93L50.81,77.76c-1.86,1.07-3.97,1.64-6.13,1.64Z" fill="#fff" transform="translate(0 0)" fill-opacity="1"></path><path id="eDuMsRTcgtw7" d="M50.81,65.83c-1.85,1.07-3.97,1.64-6.12,1.64s-4.27-.57-6.12-1.64L1.06,44.18v3.94c0,.41.22.78.57.99L36.58,69.29c2.45,1.42,5.26,2.17,8.11,2.17s5.66-.75,8.11-2.17L87.74,49.1c.35-.2.57-.58.57-.99v-3.93L50.81,65.83Z" fill="#00bbed" transform="translate(0 0)" fill-opacity="1"></path><path id="eDuMsRTcgtw8" d="M69.16,12.32l13.97,8.07c3.54,2.04,5.65,5.7,5.65,9.79s-2.11,7.74-5.65,9.79L53.2,57.24c-2.58,1.49-5.53,2.28-8.52,2.28s-5.94-.79-8.52-2.28L6.23,39.96c-3.54-2.04-5.65-5.7-5.65-9.79s2.11-7.74,5.65-9.79L36.16,3.11c2.58-1.49,5.52-2.28,8.52-2.28c2.99,0,5.94.79,8.52,2.28L62.72,8.6l-6.45,3.72L49.98,8.7c-1.6-.93-3.43-1.41-5.3-1.41-1.86,0-3.69.49-5.29,1.41L9.46,25.98c-1.52.88-2.43,2.45-2.43,4.2s.91,3.32,2.43,4.2L39.39,51.66c1.6.92,3.43,1.41,5.29,1.41s3.69-.49,5.29-1.41L79.9,34.38c1.52-.88,2.43-2.45,2.43-4.2s-.91-3.33-2.43-4.2l-10.76-6.2-18.02,10.4-6.45-3.72L69.16,12.32Z" fill="#fff" transform="translate(0 0)" fill-opacity="1"></path></g></g><g transform="translate(101.513833 28.120008)"><path d="M21.11,0.06c7.63,0,12.69,3.48,16.1,8.05l-4.94,2.87c-2.32-3.11-6.41-5.49-11.16-5.49-8.48,0-14.82,6.47-14.82,15.62s6.34,15.68,14.82,15.68c4.51,0,8.36-2.2,10.31-4.03v-7.32h-13.06v-5.37h19.16v14.95c-3.9,4.33-9.52,7.2-16.41,7.2C9.46,42.22,0,33.8,0,21.11s9.46-21.05,21.11-21.05Z" fill="#fff"></path><path d="M42.94,41.42v-29.46h5.49v4.51c2.26-2.93,5.73-5.19,9.64-5.19v5.55c-.55-.12-1.16-.18-1.89-.18-2.75,0-6.47,2.07-7.75,4.27v20.5h-5.49Z" fill="#fff"></path><path d="M79,41.42v-3.23c-2.32,2.56-5.67,3.97-9.64,3.97-4.88,0-10.25-3.29-10.25-9.76s5.31-9.64,10.25-9.64c3.97,0,7.38,1.28,9.64,3.9v-4.88c0-3.66-2.99-5.86-7.2-5.86-3.35,0-6.22,1.28-8.85,3.9l-2.38-3.78c3.29-3.23,7.32-4.82,12.08-4.82c6.41,0,11.84,2.81,11.84,10.31v19.89h-5.49Zm0-11.47c-1.65-2.2-4.51-3.36-7.56-3.36-3.97,0-6.77,2.38-6.77,5.86s2.81,5.86,6.77,5.86c3.05,0,5.92-1.16,7.56-3.36v-5Z" fill="#fff"></path><path d="M89.97,3.54C89.97,1.59,91.62,0,93.51,0s3.54,1.59,3.54,3.54-1.59,3.48-3.54,3.48-3.54-1.52-3.54-3.48Zm.85,37.88v-29.46h5.49v29.47h-5.49Z" fill="#fff"></path><path d="M124.5,41.42v-4.21c-2.2,2.93-5.73,4.94-9.64,4.94-7.69,0-13.18-5.8-13.18-15.43s5.49-15.5,13.18-15.5c3.78,0,7.26,1.83,9.64,5v-15.49h5.49v40.69h-5.49Zm0-20.99c-1.53-2.38-4.82-4.33-8.17-4.33-5.49,0-8.91,4.45-8.91,10.62s3.42,10.55,8.91,10.55c3.36,0,6.65-1.89,8.17-4.27v-12.57Z" fill="#fff"></path><path d="M159.21,41.42v-35.32h-12.63v-5.37h31.3v5.37h-12.57v35.32h-6.1Z" fill="#fff"></path><path d="M186.48,11.23c8.85,0,14.34,6.89,14.34,15.92v1.34h-23.3c.43,5,4.09,9.15,10,9.15c3.11,0,6.53-1.22,8.72-3.48l2.56,3.6c-2.93,2.87-7.08,4.39-11.83,4.39-8.79,0-15.25-6.22-15.25-15.5c0-8.54,6.16-15.44,14.76-15.44Zm-9.03,13.3h18c-.12-3.9-2.75-8.79-8.97-8.79s-8.72,4.76-9.03,8.79Z" fill="#fff"></path><path d="M219.35,11.23c5.55,0,8.91,2.32,11.04,5.19l-3.66,3.35c-1.77-2.5-4.15-3.66-7.14-3.66-5.8,0-9.52,4.45-9.52,10.55s3.72,10.61,9.52,10.61c2.99,0,5.37-1.22,7.14-3.66l3.66,3.36c-2.14,2.87-5.49,5.19-11.04,5.19-8.91,0-15.01-6.65-15.01-15.5s6.1-15.44,15.01-15.44Z" fill="#fff"></path><path d="M254.79,41.42v-18.97c0-4.88-2.5-6.34-6.28-6.34-3.42,0-6.53,2.07-8.11,4.27v21.05h-5.49v-40.7h5.49v15.37c1.95-2.38,5.92-4.88,10.43-4.88c6.28,0,9.46,3.17,9.46,9.39v20.8h-5.49Z" fill="#fff"></path><path d="M286.15,41.42v-18.85c0-4.88-2.5-6.47-6.28-6.47-3.42,0-6.53,2.07-8.11,4.27v21.05h-5.49v-29.46h5.49v4.15c1.95-2.38,5.86-4.88,10.43-4.88c6.22,0,9.46,3.29,9.46,9.52v20.68h-5.49Z" fill="#fff"></path><path d="M296.27,26.66c0-8.48,5.73-15.44,14.88-15.44s14.88,6.95,14.88,15.44-5.67,15.5-14.88,15.5-14.88-6.96-14.88-15.5Zm24.04,0c0-5.55-3.23-10.55-9.15-10.55s-9.15,5-9.15,10.55s3.29,10.61,9.15,10.61s9.15-5,9.15-10.61Z" fill="#fff"></path><path d="M330.86,41.42v-40.69h5.49v40.69h-5.49Z" fill="#fff"></path><path d="M340.8,26.66c0-8.48,5.73-15.44,14.88-15.44s14.88,6.95,14.88,15.44-5.67,15.5-14.88,15.5-14.88-6.96-14.88-15.5Zm24.04,0c0-5.55-3.23-10.55-9.15-10.55s-9.15,5-9.15,10.55s3.29,10.61,9.15,10.61s9.15-5,9.15-10.61Z" fill="#fff"></path><path d="M378.38,44.96c2.44,2.81,5.43,3.9,9.46,3.9c4.58,0,9.15-2.2,9.15-8.42v-3.84c-2.26,2.93-5.73,5.06-9.7,5.06-7.62,0-13.12-5.61-13.12-15.25s5.49-15.19,13.12-15.19c3.84,0,7.32,1.83,9.7,5v-4.27h5.49v28.31c0,10.13-7.38,13.12-14.64,13.12-4.94,0-8.54-1.04-12.08-4.39l2.62-4.03Zm18.61-24.52c-1.53-2.38-4.88-4.33-8.17-4.33-5.49,0-8.91,4.27-8.91,10.31s3.42,10.37,8.91,10.37c3.29,0,6.65-2.01,8.17-4.39v-11.96Z" fill="#fff"></path><path d="M409.06,48.01c.67.3,1.71.49,2.44.49c2.01,0,3.36-.67,4.27-2.87l1.71-3.9-12.14-29.77h5.86l9.21,23.12l9.21-23.12h5.92L421.02,47.04c-1.89,4.64-5.12,6.28-9.39,6.34-.92,0-2.56-.18-3.42-.43l.85-4.94Z" fill="#fff"></path><path d="M450.48,41.42v-40.69h6.1v40.69h-6.1Z" fill="#fff"></path><path d="M482.93,41.42v-18.85c0-4.88-2.5-6.47-6.28-6.47-3.42,0-6.53,2.07-8.11,4.27v21.05h-5.49v-29.46h5.49v4.15c1.95-2.38,5.86-4.88,10.43-4.88c6.22,0,9.46,3.29,9.46,9.52v20.68h-5.49Z" fill="#fff"></path><path d="M508.12,11.23c5.55,0,8.91,2.32,11.04,5.19l-3.66,3.35c-1.77-2.5-4.15-3.66-7.14-3.66-5.8,0-9.52,4.45-9.52,10.55s3.72,10.61,9.52,10.61c2.99,0,5.37-1.22,7.14-3.66l3.66,3.36c-2.14,2.87-5.49,5.19-11.04,5.19-8.91,0-15.01-6.65-15.01-15.5s6.1-15.44,15.01-15.44Z" fill="#fff"></path><path d="M525.99,34.47c2.07,0,3.84,1.71,3.84,3.78s-1.77,3.84-3.84,3.84-3.78-1.77-3.78-3.84s1.71-3.78,3.78-3.78Z" fill="#fff"></path></g></a>

</svg>