<svg xmlns="http://www.w3.org/2000/svg" viewBox="0 0 130 49"><g id="logo-sketch.svg" fill="none" fill-rule="evenodd" stroke="none" stroke-width="1"><g id="somos-logo-r" fill-rule="nonzero"><path id="Shape" fill="#B59FDF" d="M0 12.13a12.22 12.22 0 0 0 12.23 12.22V12.13H0ZM24.35 36.58c.017-6.718-5.402-12.186-12.12-12.23v12.23h12.12Z"/><path id="Shape" fill="#404B75" d="M0 36.58A12.22 12.22 0 0 0 12.23 48.8V36.58H0ZM24.35 12.13C24.323 5.446 18.914.033 12.23 0v12.23h12.12v-.1ZM42.24 23.06 42 23c-1.59-.6-2.78-1.09-2.78-2.29S40.05 19 41.35 19c1.3 0 2.18.7 2.18 2v.5h2.79v-.2a4.59 4.59 0 0 0-1.2-3.3 4.89 4.89 0 0 0-3.67-1.29c-2.79 0-4.77 1.69-4.77 4.17 0 3 2.48 3.88 4.17 4.57H41c1.59.6 2.88 1.1 2.88 2.39a2 2 0 0 1-2.28 2 2.22 2.22 0 0 1-2.39-2.29v-.4h-3v.3c0 3.08 1.89 5 5.17 5A5.1 5.1 0 0 0 45 31a4.4 4.4 0 0 0 1.3-3.18c.12-2.82-2.07-3.97-4.06-4.76ZM117.48 23.06l-.2-.1c-1.59-.6-2.78-1.09-2.78-2.29s.79-1.69 2.09-1.69c1.3 0 2.18.7 2.18 2v.5h2.69v-.2a4.59 4.59 0 0 0-1.2-3.28 4.89 4.89 0 0 0-3.67-1.29c-2.79 0-4.77 1.69-4.77 4.17 0 3 2.48 3.88 4.17 4.57h.1c1.59.6 2.88 1.1 2.88 2.39a2 2 0 0 1-2.28 2 2.22 2.22 0 0 1-2.39-2.29v-.4h-2.88v.3c0 3.08 1.89 5 5.17 5a5.1 5.1 0 0 0 3.67-1.45 4.4 4.4 0 0 0 1.3-3.18c.1-2.82-1.99-3.97-4.08-4.76ZM58.74 16.5a7.85 7.85 0 1 0 7.85 7.85 7.81 7.81 0 0 0-7.85-7.85Zm0 13a5.17 5.17 0 1 1 5.17-5.17 5.14 5.14 0 0 1-5.17 5.19v-.02ZM99.19 16.5a7.85 7.85 0 1 0 7.86 7.85 7.81 7.81 0 0 0-7.86-7.85Zm0 13a5.17 5.17 0 1 1 5.17-5.17 5.2 5.2 0 0 1-5.17 5.19v-.02Z"/><path id="Shape" fill="#404B75" d="M83.79 16.9 79.02 21.67 74.15 16.9 71.66 16.9 71.66 31.8 74.34 31.8 74.34 20.77 79.02 25.44 83.69 20.77 83.69 31.8 86.27 31.8 86.27 16.9z"/><path id="Shape" fill="#404B75" d="M124.45 19.42A2.55 2.55 0 1 1 127 22a2.56 2.56 0 0 1-2.55-2.58Zm4.48 0a2 2 0 1 0-4-.002 2 2 0 0 0 4 .002ZM126 18.11h1.09c.68 0 1.08.41 1.08.87a.82.82 0 0 1-.54.82l.53.86h-.72l-.69-1.24h.25a.42.42 0 0 0 .47-.41c0-.27-.22-.36-.48-.36h-.39v2h-.6v-2.54Z"/></g></g></svg>